<svg width="134" height="104" viewBox="0 0 134 104" fill="none" xmlns="http://www.w3.org/2000/svg">
<path d="M0.75 0V9.75C0.75 36.725 15.115 60.32 36.5 73.45V104H134V91C134 73.71 99.355 65 82 65H80.375C49.5 65 23.5 39 23.5 9.75V0M82 0C75.1044 0 68.4912 2.73928 63.6152 7.61522C58.7393 12.4912 56 19.1044 56 26C56 32.8956 58.7393 39.5088 63.6152 44.3848C68.4912 49.2607 75.1044 52 82 52C88.8956 52 95.5088 49.2607 100.385 44.3848C105.261 39.5088 108 32.8956 108 26C108 19.1044 105.261 12.4912 100.385 7.61522C95.5088 2.73928 88.8956 0 82 0Z" fill="#9796A1"/>
</svg>
